<svg width="178" height="19" viewBox="0 0 178 19" fill="none" xmlns="http://www.w3.org/2000/svg">
<g clip-path="url(#clip0)">
<path d="M0.693125 18H4.10113C10.1491 18 11.7331 16.104 11.7331 10.824V1.2H7.53313V11.016C7.53313 13.776 6.66913 14.568 2.75713 14.568H0.693125V18ZM24.7048 18.24C31.2808 18.24 33.9928 15.984 33.9928 10.248V8.952C33.9928 3.216 31.2808 0.959999 24.7048 0.959999H23.3848C16.8088 0.959999 14.0968 3.216 14.0968 8.952V10.248C14.0968 15.984 16.8088 18.24 23.3848 18.24H24.7048ZM24.4168 14.808H23.6968C19.1848 14.808 18.3208 13.272 18.3208 9.984V9.24C18.3208 5.928 19.1848 4.392 23.6968 4.392H24.4168C28.8808 4.392 29.7688 5.928 29.7688 9.24V9.984C29.7688 13.272 28.8808 14.784 24.4168 14.808ZM61.5166 18V1.2H54.6766L49.3726 12.72H49.2046L43.9486 1.2H36.7006V18H40.8286V4.68H40.9966L47.0926 18H51.0526L57.2206 4.68H57.3886V18H61.5166ZM68.7901 18V1.2H64.6381V18H68.7901ZM87.6311 18.24C93.2231 18.24 95.7191 16.536 96.4631 12.408H92.1911C91.6391 14.136 90.3671 14.808 87.1991 14.808H86.5991C82.2311 14.808 81.3911 13.272 81.3911 9.984V9.24C81.3911 5.928 82.2311 4.392 86.5991 4.392H87.1991C90.3671 4.392 91.6391 5.064 92.1911 6.792H96.4631C95.7191 2.664 93.2231 0.959999 87.6311 0.959999H86.1671C79.6871 0.959999 77.1671 3.216 77.1671 8.952V10.248C77.1671 15.984 79.6871 18.24 86.1671 18.24H87.6311ZM108.382 18.24C114.574 18.24 116.614 16.32 116.614 10.944V1.2H112.366V10.728C112.366 13.8 111.406 14.784 107.998 14.784H107.278C103.87 14.784 102.886 13.824 102.886 10.728V1.2H98.6375V10.944C98.6375 16.32 100.678 18.24 106.894 18.24H108.382ZM137.34 13.488V13.032C137.34 10.656 136.236 9.6 134.124 9.408V9.264C136.068 9.024 137.028 7.896 137.028 5.568V5.28C137.004 2.328 135.3 1.2 130.668 1.2H119.388V18H131.052C135.66 18 137.34 16.656 137.34 13.488ZM123.54 4.512H130.044C132.204 4.512 132.852 4.92 132.852 6.216V6.312C132.852 7.608 132.204 7.92 130.188 7.92H123.54V4.512ZM129.996 10.944C132.468 10.944 133.164 11.232 133.164 12.744V12.864C133.164 14.304 132.468 14.688 130.02 14.688H123.54V10.944H129.996ZM150.236 18.24C156.812 18.24 159.524 15.984 159.524 10.248V8.952C159.524 3.216 156.812 0.959999 150.236 0.959999H148.916C142.34 0.959999 139.628 3.216 139.628 8.952V10.248C139.628 15.984 142.34 18.24 148.916 18.24H150.236ZM149.948 14.808H149.228C144.716 14.808 143.852 13.272 143.852 9.984V9.24C143.852 5.928 144.716 4.392 149.228 4.392H149.948C154.412 4.392 155.3 5.928 155.3 9.24V9.984C155.3 13.272 154.412 14.784 149.948 14.808ZM176.944 18V14.472H166.384V1.2H162.232V18H176.944Z" fill="#DEA74F"/>
</g>
<defs>
<clipPath id="clip0">
<rect width="178" height="19" fill="white"/>
</clipPath>
</defs>
</svg>
