<?xml version="1.0" encoding="UTF-8"?>
<svg width="500px" height="500px" viewBox="0 0 500 500" version="1.1" xmlns="http://www.w3.org/2000/svg" xmlns:xlink="http://www.w3.org/1999/xlink" style="background: #000000;">
    <!-- Generator: Sketch 43.2 (39069) - http://www.bohemiancoding.com/sketch -->
    <title>brandmark</title>
    <desc>Created with Sketch.</desc>
    <defs></defs>
    <g id="Page-1" stroke="none" stroke-width="1" fill="none" fill-rule="evenodd">
        <g id="brandmark" fill-rule="nonzero" fill="#FFFFFF">
            <g id="noun_10496-(1)" transform="translate(75.000000, 148.000000)">
                <path d="M276.364139,127.294989 C275.747205,130.025635 274.720482,132.88245 273.229932,135.703217 C267.799107,145.976937 258.549593,151.749145 252.582891,148.590427 C246.611685,145.431709 246.179381,134.536159 251.605702,124.253427 C254.249064,119.274278 257.77955,115.358549 261.404604,112.99289 L166.847008,0 L80.7148463,112.988384 C84.4479755,115.322501 88.1045508,119.32835 90.81546,124.451692 C96.2462849,134.729917 95.8139804,145.625467 89.8472782,148.788691 C83.8805759,151.951916 74.6310616,146.179707 69.2002367,135.896976 C67.7817377,133.21139 66.7685241,130.480743 66.1425833,127.862747 L0,150.636159 L17.8190497,204.902125 L328.767546,204.902125 L350,151.014664 L276.364139,127.294989 Z" id="Shape"></path>
            </g>
        </g>
    </g>
</svg>